<?xml version="1.0" encoding="utf-8"?>

<svg version="1.1" id="Icons" xmlns="http://www.w3.org/2000/svg" xmlns:xlink="http://www.w3.org/1999/xlink" x="0px" y="0px"
	 viewBox="0 0 32 32" style="enable-background:new 0 0 32 32;" xml:space="preserve">
<style type="text/css">
	.st0{fill:none;stroke:#000000;stroke-width:2;stroke-linecap:round;stroke-linejoin:round;stroke-miterlimit:10;}
</style>
<g>
	<path d="M12.9,25.6c-0.1,0-0.2,0-0.3-0.1l-3.7-1.2c-0.3-0.1-0.5-0.3-0.6-0.6L6.9,20c-0.1-0.4,0-0.8,0.3-1.1l11.2-8.7
		c0.4-0.3,1-0.3,1.3,0.1l2.5,2.5c0.4,0.4,0.4,0.9,0.1,1.3l-8.7,11.2C13.5,25.5,13.2,25.6,12.9,25.6z M9.9,22.6l2.6,0.9l7.8-10
		L19,12.2L9,20L9.9,22.6z"/>
</g>
<g>
	<path d="M7.9,20.6c-0.1,0-0.3,0-0.4-0.1l-3.9-1.9C3.2,18.5,3,18.2,3,17.8v-2.5c0-0.4,0.2-0.7,0.6-0.9l13.2-6.2
		c0.5-0.2,1.1,0,1.3,0.5c0.2,0.5,0,1.1-0.5,1.3L5,15.9v1.2l3.3,1.6C8.8,19,9,19.6,8.8,20.1C8.6,20.4,8.2,20.6,7.9,20.6z"/>
</g>
<g>
	<path d="M17.2,30h-2.5c-0.4,0-0.8-0.2-0.9-0.6L11.9,25c-0.2-0.5,0-1.1,0.5-1.3c0.5-0.2,1.1,0,1.3,0.5l1.6,3.8h1.2l6-13.1
		c0.2-0.5,0.8-0.7,1.3-0.5c0.5,0.2,0.7,0.8,0.5,1.3l-6.2,13.7C18,29.8,17.6,30,17.2,30z"/>
</g>
<g>
	<path d="M27.3,12.9l0.6-0.6c1-1,1.6-2.4,1.6-3.8c0-1.4-0.6-2.8-1.6-3.8c-2.1-2.1-5.5-2.1-7.7,0l-0.6,0.6L27.3,12.9z"/>
	<path d="M18.2,6.6l-1.7,1.7c-0.4,0.4-0.4,1,0,1.4l6.2,6.2c0.2,0.2,0.4,0.3,0.7,0.3s0.5-0.1,0.7-0.3l1.7-1.7L18.2,6.6z"/>
</g>
</svg>
