<svg xmlns="http://www.w3.org/2000/svg" xmlns:xlink="http://www.w3.org/1999/xlink" width="428" height="572" viewBox="0 0 428 572" fill="none"><defs><rect id="path_0" x="0" y="0" width="428" height="572" /><linearGradient id="linear_0" x1="11.945%" y1="15.738%" x2="80.343%" y2="84.098%" gradientUnits="objectBoundingBox"><stop offset="0" stop-color="#FFF2F2" stop-opacity="1" /><stop offset="1" stop-color="#F2FCFF" stop-opacity="1" /></linearGradient><rect id="path_1" x="0" y="0" width="48" height="48" /><rect id="path_2" x="0" y="0" width="56.803" height="56.803" /><linearGradient id="linear_1" x1="11.945%" y1="15.738%" x2="80.343%" y2="84.098%" gradientUnits="objectBoundingBox"><stop offset="0" stop-color="#FFF2F2" stop-opacity="1" /><stop offset="1" stop-color="#F2FCFF" stop-opacity="1" /></linearGradient><rect id="path_3" x="0" y="0" width="48" height="48" /><rect id="path_4" x="0" y="0" width="56.803" height="56.803" /><rect id="path_5" x="0" y="0" width="62" height="62" /><rect id="path_6" x="0" y="0" width="34" height="34" /><rect id="path_7" x="0" y="0" width="24" height="24" /><linearGradient id="linear_2" x1="11.945%" y1="15.738%" x2="80.343%" y2="84.098%" gradientUnits="objectBoundingBox"><stop offset="0" stop-color="#FFF2F2" stop-opacity="1" /><stop offset="1" stop-color="#F2FCFF" stop-opacity="1" /></linearGradient><rect id="path_8" x="0" y="0" width="56.803" height="56.803" /></defs><g opacity="1" transform="translate(0 0)  rotate(0 214 286)"><rect fill="none" opacity="1" transform="translate(0 0)  rotate(0 214 286)" x="0" y="0" width="428" height="572" rx="0" /><mask id="bg-mask-0" fill="white"><use xlink:href="#path_0"></use></mask><g mask="url(#bg-mask-0)" ><g opacity="1" transform="translate(201 20)  rotate(0 88 88)"><path id="矩形 2" fill-rule="evenodd" fill="url(#linear_0)" transform="translate(0 44)  rotate(0 88 66)" opacity="1" d="M10,132L166,132C171.52,132 176,127.52 176,122L176,10C176,4.48 171.52,0 166,0L10,0C4.48,0 0,4.48 0,10L0,122C0,127.52 4.48,132 10,132Z " /><g opacity="1" transform="translate(23 55)  rotate(0 64.93811539209837 60.00201248622038)"><g opacity="1" transform="translate(1.7499669596625012 3.7440249724407693)  rotate(3.4478498224599434 63.18814843243587 31)"><g opacity="1" transform="translate(0 0)  rotate(0 63.18814843243587 31)"><path id="分组 3" fill-rule="evenodd" style="fill:#000000" transform="translate(0 0)  rotate(0 63.18814843243587 31)" opacity="0.2" d="M0 62L126.38 62L126.38 0L0 0L0 62ZM61.24 9.25L3.91 9.25L3.91 2.78L61.24 2.78L61.24 9.25ZM65.14 9.25L122.47 9.25L122.47 2.78L65.14 2.78L65.14 9.25ZM27.36 49.97L27.36 12.03L3.91 12.03L3.91 49.97L27.36 49.97ZM31.27 29.61L61.23 29.61L61.23 12.03L31.27 12.03L31.27 29.61ZM65.14 29.61L95.11 29.61L95.11 12.03L65.14 12.03L65.14 29.61ZM122.47 49.97L99.02 49.97L99.02 12.03L122.47 12.03L122.47 49.97ZM61.23 49.97L31.27 49.97L31.27 32.39L61.23 32.39L61.23 49.97ZM95.11 49.97L95.11 32.39L65.14 32.39L65.14 49.97L95.11 49.97ZM61.24 52.75L61.24 59.22L3.91 59.22L3.91 52.75L61.24 52.75ZM122.47 52.75L122.47 59.22L65.14 59.22L65.14 52.75L122.47 52.75Z" /></g></g><g opacity="1" transform="translate(40.9999669596625 72.00402497244076)  rotate(0 24 24)"><mask id="bg-mask-1" fill="white"><use xlink:href="#path_1"></use></mask><g mask="url(#bg-mask-1)" ><path id="分组 1" fill-rule="evenodd" style="fill:#333333" transform="translate(12.964398905697387 4.3386889672703965)  rotate(0 11.01390109430261 20.00655598820897)" opacity="1" d="M3 2.01C2.45 2.01 2 2.46 2 3.01L2.03 37.01C2.03 37.57 2.48 38.01 3.03 38.01L19.03 38C19.58 38 20.03 37.55 20.03 37L20 3C20 2.45 19.55 2 19 2L3 2.01ZM0 3.02L0.03 37.02C0.03 38.67 1.37 40.01 3.03 40.01L19.03 40C20.69 40 22.03 38.65 22.03 37L22 3C22 1.34 20.65 0 19 0L3 0.01C1.34 0.01 0 1.36 0 3.02Z " /><path id="分组 2" fill-rule="evenodd" style="fill:#333333" transform="translate(15.965199731932817 7.339599660798397)  rotate(0 8.015 14.505750303634406)" opacity="1" d="M0 1.01L0.02 28.01C0.02 28.56 0.47 29.01 1.02 29.01L15.02 29C15.58 29 16.02 28.55 16.02 28L16 1C16 0.45 15.55 0 15 0L1 0.01C0.45 0.01 0 0.46 0 1.01ZM2.923 17.803C4.364 17.803 5.519 16.945 5.519 15.504C5.519 14.393 4.76 13.689 3.814 13.458L3.814 13.403C4.672 13.106 5.244 12.446 5.244 11.467C5.244 10.191 4.254 9.454 2.89 9.454C1.966 9.454 1.251 9.861 0.646 10.411L1.185 11.049C1.647 10.587 2.208 10.268 2.857 10.268C3.704 10.268 4.221 10.774 4.221 11.544C4.221 12.413 3.66 13.084 1.988 13.084L1.988 13.854C3.858 13.854 4.496 14.492 4.496 15.471C4.496 16.395 3.825 16.967 2.857 16.967C1.944 16.967 1.339 16.527 0.866 16.043L0.349 16.692C0.877 17.275 1.669 17.803 2.923 17.803ZM7.664 13.37C8.06 13.37 8.39 13.062 8.39 12.6C8.39 12.149 8.06 11.83 7.664 11.83C7.257 11.83 6.938 12.149 6.938 12.6C6.938 13.062 7.257 13.37 7.664 13.37ZM7.664 17.803C8.06 17.803 8.39 17.495 8.39 17.044C8.39 16.582 8.06 16.274 7.664 16.274C7.257 16.274 6.938 16.582 6.938 17.044C6.938 17.495 7.257 17.803 7.664 17.803ZM12.075 17.803C13.428 17.803 14.715 16.802 14.715 15.042C14.715 13.26 13.615 12.468 12.284 12.468C11.8 12.468 11.437 12.589 11.074 12.787L11.283 10.455L14.319 10.455L14.319 9.597L10.403 9.597L10.139 13.359L10.678 13.7C11.14 13.392 11.481 13.227 12.02 13.227C13.032 13.227 13.692 13.909 13.692 15.064C13.692 16.241 12.933 16.967 11.976 16.967C11.041 16.967 10.447 16.538 9.996 16.076L9.49 16.736C10.04 17.275 10.81 17.803 12.075 17.803Z " /><path id="路径 5" fill-rule="evenodd" style="fill:#333333" transform="translate(21.990699162546743 37.34529932159678)  rotate(0 2.000000757928241 2.0000006784032287)" opacity="1" d="M4,2C4,0.89 3.1,0 2,0C0.89,0 0,0.9 0,2C0,3.11 0.9,4 2,4C3.11,4 4,3.1 4,2Z " /></g></g><g opacity="1" transform="translate(24.9999669596625 0.004024972440760166)  rotate(0 28.4015 28.4015)"><mask id="bg-mask-2" fill="white"><use xlink:href="#path_2"></use></mask><g mask="url(#bg-mask-2)" ><g opacity="1" transform="translate(8.289478976275973 0)  rotate(0 20.11169545379439 28.401547792008127)"><g opacity="1" transform="translate(0 0)  rotate(0 20.11169545379439 28.401547792008127)"><path id="分组 3" fill-rule="evenodd" style="fill:#010002" transform="translate(0 2.726891935245689)  rotate(0 20.11169545379439 27.038101824385283)" opacity="1" d="M27.98 34.99C27.98 34.99 27.99 34.99 27.99 34.99C25.14 37.22 22.45 39.67 19.37 41.57C16.84 43.14 19.16 47.14 21.71 45.57C25.22 43.39 28.24 40.51 31.54 38.05C31.72 37.91 31.87 37.77 32 37.61C32.16 37.6 32.33 37.59 32.49 37.57C33.14 39.44 33.86 41.3 34.61 43.14C32.53 45.46 30.63 47.94 29.04 50.63C27.51 53.2 31.51 55.53 33.03 52.96C34.7 50.15 36.71 47.62 38.95 45.24C39.64 44.52 39.72 43.68 39.47 42.95C39.44 42.83 39.4 42.71 39.35 42.58C38 39.34 36.77 36.08 35.76 32.72C35.73 32.52 35.69 32.32 35.63 32.12C34.66 28.49 33.68 24.86 32.7 21.24C35.29 20.09 37.62 18.25 39.55 16.25C40.26 15.51 40.46 14.34 39.91 13.45C38.54 11.2 37.16 8.95 35.79 6.7C34.24 4.16 30.23 6.49 31.79 9.04C32.85 10.77 33.91 12.5 34.97 14.24C33.28 15.75 31.32 17.04 29.14 17.6C29.02 17.63 28.92 17.68 28.82 17.72C28.26 17.69 27.71 17.76 27.21 17.95C26.89 18.07 26.6 18.22 26.35 18.39C26.33 18.39 26.31 18.38 26.29 18.38C22.37 18.3 18.88 17.05 15.6 14.94C14.81 14.43 14.04 14.48 13.44 14.83C11.07 11.81 10.36 10.5 10.16 10.03C11.14 8.18 10.15 4.83 8.48 2.72C6.43 0.12 3.22 -0.77 1.33 0.73C-0.56 2.22 -0.42 5.55 1.63 8.14C3.3 10.25 6.32 11.97 8.35 11.45C8.78 11.8 10.04 12.93 12.44 15.94C11.98 16.92 12.1 18.19 13.26 18.94C16.78 21.2 20.63 22.58 24.75 22.92C24.77 23.02 24.79 23.11 24.81 23.21C25.87 27.13 26.93 31.06 27.98 34.99ZM8.45976 10.5527L9.26976 9.92272C10.2798 8.67272 9.58976 5.43272 7.83976 3.22272C6.06976 0.98272 3.36976 0.14272 1.83976 1.36272C0.299758 2.58272 0.489758 5.39272 2.26976 7.63272C4.01976 9.84272 7.01976 11.2527 8.45976 10.5527ZM9.96167 10.8928C9.70167 10.5628 9.32167 10.4328 9.11167 10.5928C8.90167 10.7628 8.95167 11.1628 9.21167 11.4928C9.47167 11.8228 9.85167 11.9528 10.0617 11.7928C10.2717 11.6228 10.2217 11.2228 9.96167 10.8928Z " /><path id="路径 4" fill-rule="evenodd" style="fill:#010002" transform="translate(22.071521023724024 10.597000000000001)  rotate(0 4.204 4.204)" opacity="1" d="M4.2,0C1.88,0 0,1.88 0,4.2C0,6.53 1.88,8.41 4.2,8.41C6.53,8.41 8.41,6.53 8.41,4.2C8.41,1.88 6.53,0 4.2,0Z " /><path id="路径 5" fill-rule="evenodd" style="fill:#010002" transform="translate(12.916984136790404 0)  rotate(0 3.7192684434668113 3.3220931800083706)" opacity="1" d="M0.24,6.14C0.64,6.69 1.42,6.81 1.98,6.41C2.05,6.35 2.11,6.3 2.17,6.23L7.44,3.75L5.89,3.1L6.02,1.82L4.54,1.25L4.7,0L0.73,4.27C0.66,4.3 0.58,4.35 0.51,4.4C-0.04,4.8 -0.17,5.58 0.24,6.14Z " /></g></g><g opacity="1" transform="translate(0 0)  rotate(0 0.5 0.5)"></g><g opacity="1" transform="translate(0 0)  rotate(0 0.5 0.5)"></g><g opacity="1" transform="translate(0 0)  rotate(0 0.5 0.5)"></g><g opacity="1" transform="translate(0 0)  rotate(0 0.5 0.5)"></g><g opacity="1" transform="translate(0 0)  rotate(0 0.5 0.5)"></g><g opacity="1" transform="translate(0 0)  rotate(0 0.5 0.5)"></g><g opacity="1" transform="translate(0 0)  rotate(0 0.5 0.5)"></g><g opacity="1" transform="translate(0 0)  rotate(0 0.5 0.5)"></g><g opacity="1" transform="translate(0 0)  rotate(0 0.5 0.5)"></g><g opacity="1" transform="translate(0 0)  rotate(0 0.5 0.5)"></g><g opacity="1" transform="translate(0 0)  rotate(0 0.5 0.5)"></g><g opacity="1" transform="translate(0 0)  rotate(0 0.5 0.5)"></g><g opacity="1" transform="translate(0 0)  rotate(0 0.5 0.5)"></g><g opacity="1" transform="translate(0 0)  rotate(0 0.5 0.5)"></g><g opacity="1" transform="translate(0 0)  rotate(0 0.5 0.5)"></g></g></g></g><g opacity="1" transform="translate(56 0)  rotate(0 32 17)"><text><tspan x="0" y="27" font-size="32" line-height="0" fill="#000000" opacity="1" font-family="HuXiaoBoNanShen-Regular" letter-spacing="0" >记分</tspan></text></g></g><g opacity="1" transform="translate(52 172)  rotate(0 88 102)"><path id="矩形 2" fill-rule="evenodd" style="fill:#EDEDED" transform="translate(0 43)  rotate(0 88 80.5)" opacity="1" d="M10,161L166,161C171.52,161 176,156.52 176,151L176,10C176,4.48 171.52,0 166,0L10,0C4.48,0 0,4.48 0,10L0,151C0,156.52 4.48,161 10,161Z " /><path id="矩形 2" fill-rule="evenodd" fill="url(#linear_1)" transform="translate(0 43)  rotate(0 88 80.5)" opacity="1" d="M10,161L166,161C171.52,161 176,156.52 176,151L176,10C176,4.48 171.52,0 166,0L10,0C4.48,0 0,4.48 0,10L0,151C0,156.52 4.48,161 10,161Z " /><g opacity="1" transform="translate(14 54)  rotate(0 70 71.00201248622038)"><g opacity="1" transform="translate(7.75 3.7440249724407693)  rotate(3.4478498224599434 63.18814843243587 31)"><g opacity="1" transform="translate(0 0)  rotate(0 63.18814843243587 31)"><path id="分组 3" fill-rule="evenodd" style="fill:#000000" transform="translate(0 0)  rotate(0 63.18814843243587 31)" opacity="0.2" d="M126.38 62L0 62L0 0L126.38 0L126.38 62ZM61.24 2.78L3.91 2.78L3.91 9.25L61.24 9.25L61.24 2.78ZM122.47 2.78L65.14 2.78L65.14 9.25L122.47 9.25L122.47 2.78ZM27.36 12.03L27.36 49.97L3.91 49.97L3.91 12.03L27.36 12.03ZM61.23 29.61L31.27 29.61L31.27 12.03L61.23 12.03L61.23 29.61ZM65.14 12.03L65.14 29.61L95.11 29.61L95.11 12.03L65.14 12.03ZM122.47 49.97L122.47 12.03L99.02 12.03L99.02 49.97L122.47 49.97ZM61.23 32.39L31.27 32.39L31.27 49.97L61.23 49.97L61.23 32.39ZM65.14 32.39L95.11 32.39L95.11 49.97L65.14 49.97L65.14 32.39ZM3.91 59.22L61.24 59.22L61.24 52.75L3.91 52.75L3.91 59.22ZM122.47 59.22L65.14 59.22L65.14 52.75L122.47 52.75L122.47 59.22Z" /></g></g><g opacity="1" transform="translate(92 92.00402497244076)  rotate(0 24 24)"><mask id="bg-mask-3" fill="white"><use xlink:href="#path_3"></use></mask><g mask="url(#bg-mask-3)" ><path id="分组 1" fill-rule="evenodd" style="fill:#333333" transform="translate(12.964398905697387 4.3386889672703965)  rotate(0 11.01390109430261 20.00655598820897)" opacity="1" d="M3 2.01C2.45 2.01 2 2.46 2 3.01L2.03 37.01C2.03 37.57 2.48 38.01 3.03 38.01L19.03 38C19.58 38 20.03 37.55 20.03 37L20 3C20 2.45 19.55 2 19 2L3 2.01Z M0 3.02L0.03 37.02C0.03 38.67 1.37 40.01 3.03 40.01L19.03 40C20.69 40 22.03 38.65 22.03 37L22 3C22 1.34 20.65 0 19 0L3 0.01C1.34 0.01 0 1.36 0 3.02Z " /><path id="分组 2" fill-rule="evenodd" style="fill:#333333" transform="translate(15.965199731932817 7.339599660798397)  rotate(0 8.015 14.505750303634406)" opacity="1" d="M0 1.01L0.02 28.01C0.02 28.56 0.47 29.01 1.02 29.01L15.02 29C15.58 29 16.02 28.55 16.02 28L16 1C16 0.45 15.55 0 15 0L1 0.01C0.45 0.01 0 0.46 0 1.01Z M2.923 17.803C4.364 17.803 5.519 16.945 5.519 15.504C5.519 14.393 4.76 13.689 3.814 13.458L3.814 13.403C4.672 13.106 5.244 12.446 5.244 11.467C5.244 10.191 4.254 9.454 2.89 9.454C1.966 9.454 1.251 9.861 0.646 10.411L1.185 11.049C1.647 10.587 2.208 10.268 2.857 10.268C3.704 10.268 4.221 10.774 4.221 11.544C4.221 12.413 3.66 13.084 1.988 13.084L1.988 13.854C3.858 13.854 4.496 14.492 4.496 15.471C4.496 16.395 3.825 16.967 2.857 16.967C1.944 16.967 1.339 16.527 0.866 16.043L0.349 16.692C0.877 17.275 1.669 17.803 2.923 17.803Z M7.664 13.37C8.06 13.37 8.39 13.062 8.39 12.6C8.39 12.149 8.06 11.83 7.664 11.83C7.257 11.83 6.938 12.149 6.938 12.6C6.938 13.062 7.257 13.37 7.664 13.37Z M7.664 17.803C8.06 17.803 8.39 17.495 8.39 17.044C8.39 16.582 8.06 16.274 7.664 16.274C7.257 16.274 6.938 16.582 6.938 17.044C6.938 17.495 7.257 17.803 7.664 17.803Z M12.075 17.803C13.428 17.803 14.715 16.802 14.715 15.042C14.715 13.26 13.615 12.468 12.284 12.468C11.8 12.468 11.437 12.589 11.074 12.787L11.283 10.455L14.319 10.455L14.319 9.597L10.403 9.597L10.139 13.359L10.678 13.7C11.14 13.392 11.481 13.227 12.02 13.227C13.032 13.227 13.692 13.909 13.692 15.064C13.692 16.241 12.933 16.967 11.976 16.967C11.041 16.967 10.447 16.538 9.996 16.076L9.49 16.736C10.04 17.275 10.81 17.803 12.075 17.803Z " /><path id="路径 5" fill-rule="evenodd" style="fill:#333333" transform="translate(21.990699162546743 37.34529932159678)  rotate(0 2.000000757928241 2.0000006784032287)" opacity="1" d="M4,2C4,0.89 3.1,0 2,0C0.89,0 0,0.9 0,2C0,3.11 0.9,4 2,4C3.11,4 4,3.1 4,2Z " /></g></g><g opacity="1" transform="translate(31 0.004024972440760166)  rotate(0 28.4015 28.4015)"><mask id="bg-mask-4" fill="white"><use xlink:href="#path_4"></use></mask><g mask="url(#bg-mask-4)" ><g opacity="1" transform="translate(8.289478976275973 0)  rotate(0 20.11169545379439 28.401547792008127)"><g opacity="1" transform="translate(0 0)  rotate(0 20.11169545379439 28.401547792008127)"><path id="分组 3" fill-rule="evenodd" style="fill:#010002" transform="translate(0 2.726891935245689)  rotate(0 20.11169545379439 27.038101824385283)" opacity="1" d="M27.98 34.99C27.98 34.99 27.99 34.99 27.99 34.99C25.14 37.22 22.45 39.67 19.37 41.57C16.84 43.14 19.16 47.14 21.71 45.57C25.22 43.39 28.24 40.51 31.54 38.05C31.72 37.91 31.87 37.77 32 37.61C32.16 37.6 32.33 37.59 32.49 37.57C33.14 39.44 33.86 41.3 34.61 43.14C32.53 45.46 30.63 47.94 29.04 50.63C27.51 53.2 31.51 55.53 33.03 52.96C34.7 50.15 36.71 47.62 38.95 45.24C39.64 44.52 39.72 43.68 39.47 42.95C39.44 42.83 39.4 42.71 39.35 42.58C38 39.34 36.77 36.08 35.76 32.72C35.73 32.52 35.69 32.32 35.63 32.12C34.66 28.49 33.68 24.86 32.7 21.24C35.29 20.09 37.62 18.25 39.55 16.25C40.26 15.51 40.46 14.34 39.91 13.45C38.54 11.2 37.16 8.95 35.79 6.7C34.24 4.16 30.23 6.49 31.79 9.04C32.85 10.77 33.91 12.5 34.97 14.24C33.28 15.75 31.32 17.04 29.14 17.6C29.02 17.63 28.92 17.68 28.82 17.72C28.26 17.69 27.71 17.76 27.21 17.95C26.89 18.07 26.6 18.22 26.35 18.39C26.33 18.39 26.31 18.38 26.29 18.38C22.37 18.3 18.88 17.05 15.6 14.94C14.81 14.43 14.04 14.48 13.44 14.83C11.07 11.81 10.36 10.5 10.16 10.03C11.14 8.18 10.15 4.83 8.48 2.72C6.43 0.12 3.22 -0.77 1.33 0.73C-0.56 2.22 -0.42 5.55 1.63 8.14C3.3 10.25 6.32 11.97 8.35 11.45C8.78 11.8 10.04 12.93 12.44 15.94C11.98 16.92 12.1 18.19 13.26 18.94C16.78 21.2 20.63 22.58 24.75 22.92C24.77 23.02 24.79 23.11 24.81 23.21C25.87 27.13 26.93 31.06 27.98 34.99Z M8.45976 10.5527L9.26976 9.92272C10.2798 8.67272 9.58976 5.43272 7.83976 3.22272C6.06976 0.98272 3.36976 0.14272 1.83976 1.36272C0.299758 2.58272 0.489758 5.39272 2.26976 7.63272C4.01976 9.84272 7.01976 11.2527 8.45976 10.5527Z M9.96167 10.8928C9.70167 10.5628 9.32167 10.4328 9.11167 10.5928C8.90167 10.7628 8.95167 11.1628 9.21167 11.4928C9.47167 11.8228 9.85167 11.9528 10.0617 11.7928C10.2717 11.6228 10.2217 11.2228 9.96167 10.8928Z " /><path id="路径 4" fill-rule="evenodd" style="fill:#010002" transform="translate(22.071521023724024 10.597000000000001)  rotate(0 4.204 4.204)" opacity="1" d="M4.2,0C1.88,0 0,1.88 0,4.2C0,6.53 1.88,8.41 4.2,8.41C6.53,8.41 8.41,6.53 8.41,4.2C8.41,1.88 6.53,0 4.2,0Z " /><path id="路径 5" fill-rule="evenodd" style="fill:#010002" transform="translate(12.916984136790404 0)  rotate(0 3.7192684434668113 3.3220931800083706)" opacity="1" d="M0.24,6.14C0.64,6.69 1.42,6.81 1.98,6.41C2.05,6.35 2.11,6.3 2.17,6.23L7.44,3.75L5.89,3.1L6.02,1.82L4.54,1.25L4.7,0L0.73,4.27C0.66,4.3 0.58,4.35 0.51,4.4C-0.04,4.8 -0.17,5.58 0.24,6.14Z " /></g></g><g opacity="1" transform="translate(0 0)  rotate(0 0.5 0.5)"></g><g opacity="1" transform="translate(0 0)  rotate(0 0.5 0.5)"></g><g opacity="1" transform="translate(0 0)  rotate(0 0.5 0.5)"></g><g opacity="1" transform="translate(0 0)  rotate(0 0.5 0.5)"></g><g opacity="1" transform="translate(0 0)  rotate(0 0.5 0.5)"></g><g opacity="1" transform="translate(0 0)  rotate(0 0.5 0.5)"></g><g opacity="1" transform="translate(0 0)  rotate(0 0.5 0.5)"></g><g opacity="1" transform="translate(0 0)  rotate(0 0.5 0.5)"></g><g opacity="1" transform="translate(0 0)  rotate(0 0.5 0.5)"></g><g opacity="1" transform="translate(0 0)  rotate(0 0.5 0.5)"></g><g opacity="1" transform="translate(0 0)  rotate(0 0.5 0.5)"></g><g opacity="1" transform="translate(0 0)  rotate(0 0.5 0.5)"></g><g opacity="1" transform="translate(0 0)  rotate(0 0.5 0.5)"></g><g opacity="1" transform="translate(0 0)  rotate(0 0.5 0.5)"></g><g opacity="1" transform="translate(0 0)  rotate(0 0.5 0.5)"></g></g></g><g opacity="1" transform="translate(0 61.00402497244076)  rotate(-90 31 31)"><mask id="bg-mask-5" fill="white"><use xlink:href="#path_5"></use></mask><g mask="url(#bg-mask-5)" ><path id="分组 1" fill-rule="evenodd" style="fill:#000000" transform="translate(32 52)  rotate(0 2 1)" opacity="1" d="M0 1C0 1.55 0.9 2 2 2C3.1 2 4 1.55 4 1C4 0.45 3.1 0 2 0C0.9 0 0 0.45 0 1Z " /><path id="分组 1" fill-rule="evenodd" style="fill:#000000" transform="translate(15.5 5.166666666666686)  rotate(0 18.083333333333332 25.833333333333332)" opacity="1" d="M36.17 5.17L36.17 46.5C36.17 49.35 33.85 51.67 31 51.67L5.17 51.67C2.32 51.67 0 49.35 0 46.5L0 5.17C0 2.32 2.32 0 5.17 0L31 0C33.85 0 36.17 2.32 36.17 5.17Z M34 45.2L34 6.8C34 4.15 31.95 2 29.43 2L6.57 2C4.05 2 2 4.15 2 6.8L2 45.2C2 47.85 4.05 50 6.57 50L29.43 50C31.95 50 34 47.85 34 45.2Z " /><path id="分组 1" fill-rule="evenodd" style="fill:#000000" transform="translate(18.5 8)  rotate(0 15 21.5)" opacity="1" d="M30 4.3L30 38.7C30 41.07 28.08 43 25.71 43L4.29 43C1.92 43 0 41.07 0 38.7L0 4.3C0 1.93 1.92 0 4.29 0L25.71 0C28.08 0 30 1.93 30 4.3Z M12.636 18.984C10.54 18.984 9.292 17.304 9.292 15.208C9.292 13.384 10.06 12.232 10.908 11.464L11.852 12.216C11.148 12.904 10.508 13.784 10.508 15.112C10.508 16.52 11.34 17.496 12.684 17.496C14.108 17.496 15.036 16.568 15.036 13.848L16.156 13.848C16.156 16.28 17.132 17.096 18.396 17.096C19.516 17.096 20.252 16.344 20.252 15.112C20.252 14.168 19.788 13.352 19.116 12.68L20.044 11.896C20.844 12.776 21.436 13.816 21.436 15.16C21.436 17.144 20.364 18.584 18.508 18.584C17.084 18.584 16.124 17.752 15.692 16.504L15.612 16.504C15.276 17.88 14.252 18.984 12.636 18.984Z M10.396 23.16C9.74 23.16 9.292 22.68 9.292 22.104C9.292 21.512 9.74 21.048 10.396 21.048C11.068 21.048 11.516 21.512 11.516 22.104C11.516 22.68 11.068 23.16 10.396 23.16Z M16.86 23.16C16.188 23.16 15.74 22.68 15.74 22.104C15.74 21.512 16.188 21.048 16.86 21.048C17.516 21.048 17.98 21.512 17.98 22.104C17.98 22.68 17.516 23.16 16.86 23.16Z M13.308 32.36C10.748 32.36 9.292 30.488 9.292 28.52C9.292 26.68 10.06 25.56 10.844 24.76L11.804 25.496C11.132 26.152 10.508 27.016 10.508 28.376C10.508 29.768 11.564 30.872 13.276 30.872C14.956 30.872 15.948 29.912 15.948 28.44C15.948 27.656 15.708 27.16 15.26 26.488L15.756 25.704L21.228 26.088L21.228 31.784L19.98 31.784L19.98 27.368L16.588 27.064C16.876 27.592 17.052 28.12 17.052 28.824C17.052 30.76 15.9 32.36 13.308 32.36Z " /></g></g><g opacity="1" transform="translate(14 108.00402497244076)  rotate(0 17 17)"><mask id="bg-mask-6" fill="white"><use xlink:href="#path_6"></use></mask><g mask="url(#bg-mask-6)" ><path id="分组 1" fill-rule="evenodd" style="fill:#000000" transform="translate(6.126519923003201 0)  rotate(0 10.873411297401338 17.000063224995444)" opacity="1" d="M10.86 34Z M5.11 5.85Z M14.85 4.27Z M0.13 31.33C-0.22 32.13 0.15 33.06 0.95 33.41L0.95 33.41C1.75 33.76 2.68 33.39 3.03 32.6L3.67 31.13L9.28 31.13L9.28 32.42C9.28 33.29 9.99 34 10.86 34C11.74 34 12.44 33.29 12.44 32.42L12.44 31.13L18.05 31.13L18.72 32.67C19.07 33.47 20 33.83 20.8 33.48C21.6 33.13 21.96 32.2 21.61 31.4L14.68 15.55C14.43 14.97 13.86 14.6 13.23 14.6L12.44 14.6L12.45 9.23L12.66 9.23C13.63 9.23 14.41 8.43 14.37 7.46C14.37 7.45 14.37 7.44 14.37 7.43L14.83 7.43L18.29 13.07C18.76 13.84 19.77 14.06 20.52 13.55C21.22 13.08 21.42 12.14 20.98 11.42L17.54 5.81C16.97 4.87 15.95 4.29 14.85 4.27L14.85 1.71C14.85 0.77 14.08 0 13.13 0L8.6 0C7.65 0 6.89 0.77 6.89 1.71L6.89 4.27L6.7 4.27C5.82 4.27 5.11 4.98 5.11 5.85C5.11 6.72 5.82 7.43 6.7 7.43L7.36 7.43C7.36 7.44 7.36 7.45 7.36 7.46C7.33 8.43 8.11 9.23 9.07 9.23L9.29 9.23L9.28 14.6L8.5 14.6C7.87 14.6 7.3 14.97 7.05 15.55L0.13 31.33Z M12.4447 18.332L12.4447 27.972L16.6647 27.972L12.4447 18.332Z M5.05786 27.9721L9.28786 27.9721L9.28786 18.3321L5.05786 27.9721Z " /><g opacity="1" transform="translate(0 0)  rotate(0 0.5 0.5)"></g><g opacity="1" transform="translate(0 0)  rotate(0 0.5 0.5)"></g><g opacity="1" transform="translate(0 0)  rotate(0 0.5 0.5)"></g><g opacity="1" transform="translate(0 0)  rotate(0 0.5 0.5)"></g><g opacity="1" transform="translate(0 0)  rotate(0 0.5 0.5)"></g><g opacity="1" transform="translate(0 0)  rotate(0 0.5 0.5)"></g><g opacity="1" transform="translate(0 0)  rotate(0 0.5 0.5)"></g><g opacity="1" transform="translate(0 0)  rotate(0 0.5 0.5)"></g><g opacity="1" transform="translate(0 0)  rotate(0 0.5 0.5)"></g><g opacity="1" transform="translate(0 0)  rotate(0 0.5 0.5)"></g><g opacity="1" transform="translate(0 0)  rotate(0 0.5 0.5)"></g><g opacity="1" transform="translate(0 0)  rotate(0 0.5 0.5)"></g><g opacity="1" transform="translate(0 0)  rotate(0 0.5 0.5)"></g><g opacity="1" transform="translate(0 0)  rotate(0 0.5 0.5)"></g><g opacity="1" transform="translate(0 0)  rotate(0 0.5 0.5)"></g></g></g><g opacity="1" transform="translate(68 97.00402497244076)  rotate(26.318559271480776 12 12)"><mask id="bg-mask-7" fill="white"><use xlink:href="#path_7"></use></mask><g mask="url(#bg-mask-7)" ><path id="路径 1" fill-rule="evenodd" style="fill:#000000" transform="translate(4.560550000000001 3.9497099999999996)  rotate(0 7.424625000000001 3.346045)" opacity="1" d="M6.69,4.9L5.15,3.36C7.81,1.93 11.19,2.33 13.44,4.57L14.85,3.16C11.82,0.13 7.17,-0.29 3.69,1.9L1.79,0L0,6.69L6.69,4.9Z " /><path id="路径 2" fill-rule="evenodd" style="fill:#000000" transform="translate(4.589670000000001 13.358099999999999)  rotate(0 7.424615 3.34605)" opacity="1" d="M8.16,1.79L9.69,3.33C7.04,4.77 3.66,4.36 1.41,2.12L0,3.54C3.03,6.56 7.68,6.98 11.16,4.79L13.06,6.69L14.85,0L8.16,1.79Z " /></g></g><path id="直线 1"  style="fill:#CCCCCC" transform="translate(60 102.00402497244076)  rotate(0 20 7)" opacity="1" d="" /><path  id="直线 1" style="stroke:#000000; stroke-width:1; stroke-opacity:1; stroke-dasharray:2 2" transform="translate(60 102.00402497244076)  rotate(0 20 7)" d="M0,0L40,14 " /></g><g opacity="1" transform="translate(52 0)  rotate(0 32 17)"><text><tspan x="0" y="27" font-size="32" line-height="0" fill="#000000" opacity="1" font-family="HuXiaoBoNanShen-Regular" letter-spacing="0" >看板</tspan></text></g></g><g opacity="1" transform="translate(201 349)  rotate(0 88 101.5)"><path id="矩形 2" fill-rule="evenodd" style="fill:#EDEDED" transform="translate(0 42)  rotate(0 88 80.5)" opacity="1" d="M10,161L166,161C171.52,161 176,156.52 176,151L176,10C176,4.48 171.52,0 166,0L10,0C4.48,0 0,4.48 0,10L0,151C0,156.52 4.48,161 10,161Z " /><path id="矩形 2" fill-rule="evenodd" fill="url(#linear_2)" transform="translate(0 42)  rotate(0 88 80.5)" opacity="1" d="M10,161L166,161C171.52,161 176,156.52 176,151L176,10C176,4.48 171.52,0 166,0L10,0C4.48,0 0,4.48 0,10L0,151C0,156.52 4.48,161 10,161Z " /><g opacity="1" transform="translate(22 52)  rotate(0 64.93811539209837 70.219)"><g opacity="1" transform="translate(1.7499669596625012 3.7440249724407977)  rotate(3.4478498224599434 63.18814843243587 31)"><g opacity="1" transform="translate(0 0)  rotate(0 63.18814843243587 31)"><path id="分组 3" fill-rule="evenodd" style="fill:#000000" transform="translate(0 0)  rotate(0 63.18814843243587 31)" opacity="0.2" d="M126.38 62L126.38 0L0 0L0 62L126.38 62ZM3.91 2.78L3.91 9.25L61.24 9.25L61.24 2.78L3.91 2.78ZM65.14 9.25L65.14 2.78L122.47 2.78L122.47 9.25L65.14 9.25ZM27.36 49.97L3.91 49.97L3.91 12.03L27.36 12.03L27.36 49.97ZM31.27 12.03L61.23 12.03L61.23 29.61L31.27 29.61L31.27 12.03ZM65.14 29.61L65.14 12.03L95.11 12.03L95.11 29.61L65.14 29.61ZM99.02 49.97L122.47 49.97L122.47 12.03L99.02 12.03L99.02 49.97ZM61.23 49.97L31.27 49.97L31.27 32.39L61.23 32.39L61.23 49.97ZM95.11 49.97L95.11 32.39L65.14 32.39L65.14 49.97L95.11 49.97ZM3.91 52.75L3.91 59.22L61.24 59.22L61.24 52.75L3.91 52.75ZM122.47 52.75L65.14 52.75L65.14 59.22L122.47 59.22L122.47 52.75Z" /></g></g><g opacity="1" transform="translate(24.999999999999986 0)  rotate(0 28.4015 28.4015)"><mask id="bg-mask-8" fill="white"><use xlink:href="#path_8"></use></mask><g mask="url(#bg-mask-8)" ><g opacity="1" transform="translate(8.289478976275973 0)  rotate(0 20.11169545379439 28.401547792008127)"><g opacity="1" transform="translate(0 0)  rotate(0 20.11169545379439 28.401547792008127)"><path id="分组 3" fill-rule="evenodd" style="fill:#010002" transform="translate(0 2.726891935245689)  rotate(0 20.11169545379439 27.038101824385283)" opacity="1" d="M27.98 34.99C27.98 34.99 27.99 34.99 27.99 34.99C25.14 37.22 22.45 39.67 19.37 41.57C16.84 43.14 19.16 47.14 21.71 45.57C25.22 43.39 28.24 40.51 31.54 38.05C31.72 37.91 31.87 37.77 32 37.61C32.16 37.6 32.33 37.59 32.49 37.57C33.14 39.44 33.86 41.3 34.61 43.14C32.53 45.46 30.63 47.94 29.04 50.63C27.51 53.2 31.51 55.53 33.03 52.96C34.7 50.15 36.71 47.62 38.95 45.24C39.64 44.52 39.72 43.68 39.47 42.95C39.44 42.83 39.4 42.71 39.35 42.58C38 39.34 36.77 36.08 35.76 32.72C35.73 32.52 35.69 32.32 35.63 32.12C34.66 28.49 33.68 24.86 32.7 21.24C35.29 20.09 37.62 18.25 39.55 16.25C40.26 15.51 40.46 14.34 39.91 13.45C38.54 11.2 37.16 8.95 35.79 6.7C34.24 4.16 30.23 6.49 31.79 9.04C32.85 10.77 33.91 12.5 34.97 14.24C33.28 15.75 31.32 17.04 29.14 17.6C29.02 17.63 28.92 17.68 28.82 17.72C28.26 17.69 27.71 17.76 27.21 17.95C26.89 18.07 26.6 18.22 26.35 18.39C26.33 18.39 26.31 18.38 26.29 18.38C22.37 18.3 18.88 17.05 15.6 14.94C14.81 14.43 14.04 14.48 13.44 14.83C11.07 11.81 10.36 10.5 10.16 10.03C11.14 8.18 10.15 4.83 8.48 2.72C6.43 0.12 3.22 -0.77 1.33 0.73C-0.56 2.22 -0.42 5.55 1.63 8.14C3.3 10.25 6.32 11.97 8.35 11.45C8.78 11.8 10.04 12.93 12.44 15.94C11.98 16.92 12.1 18.19 13.26 18.94C16.78 21.2 20.63 22.58 24.75 22.92C24.77 23.02 24.79 23.11 24.81 23.21C25.87 27.13 26.93 31.06 27.98 34.99Z M8.45976 10.5527L9.26976 9.92272C10.2798 8.67272 9.58976 5.43272 7.83976 3.22272C6.06976 0.98272 3.36976 0.14272 1.83976 1.36272C0.299758 2.58272 0.489758 5.39272 2.26976 7.63272C4.01976 9.84272 7.01976 11.2527 8.45976 10.5527Z M9.96167 10.8928C9.70167 10.5628 9.32167 10.4328 9.11167 10.5928C8.90167 10.7628 8.95167 11.1628 9.21167 11.4928C9.47167 11.8228 9.85167 11.9528 10.0617 11.7928C10.2717 11.6228 10.2217 11.2228 9.96167 10.8928Z " /><path id="路径 4" fill-rule="evenodd" style="fill:#010002" transform="translate(22.071521023724024 10.597000000000001)  rotate(0 4.204 4.204)" opacity="1" d="M4.2,0C1.88,0 0,1.88 0,4.2C0,6.53 1.88,8.41 4.2,8.41C6.53,8.41 8.41,6.53 8.41,4.2C8.41,1.88 6.53,0 4.2,0Z " /><path id="路径 5" fill-rule="evenodd" style="fill:#010002" transform="translate(12.916984136790404 0)  rotate(0 3.7192684434668113 3.3220931800083706)" opacity="1" d="M0.24,6.14C0.64,6.69 1.42,6.81 1.98,6.41C2.05,6.35 2.11,6.3 2.17,6.23L7.44,3.75L5.89,3.1L6.02,1.82L4.54,1.25L4.7,0L0.73,4.27C0.66,4.3 0.58,4.35 0.51,4.4C-0.04,4.8 -0.17,5.58 0.24,6.14Z " /></g></g><g opacity="1" transform="translate(0 0)  rotate(0 0.5 0.5)"></g><g opacity="1" transform="translate(0 0)  rotate(0 0.5 0.5)"></g><g opacity="1" transform="translate(0 0)  rotate(0 0.5 0.5)"></g><g opacity="1" transform="translate(0 0)  rotate(0 0.5 0.5)"></g><g opacity="1" transform="translate(0 0)  rotate(0 0.5 0.5)"></g><g opacity="1" transform="translate(0 0)  rotate(0 0.5 0.5)"></g><g opacity="1" transform="translate(0 0)  rotate(0 0.5 0.5)"></g><g opacity="1" transform="translate(0 0)  rotate(0 0.5 0.5)"></g><g opacity="1" transform="translate(0 0)  rotate(0 0.5 0.5)"></g><g opacity="1" transform="translate(0 0)  rotate(0 0.5 0.5)"></g><g opacity="1" transform="translate(0 0)  rotate(0 0.5 0.5)"></g><g opacity="1" transform="translate(0 0)  rotate(0 0.5 0.5)"></g><g opacity="1" transform="translate(0 0)  rotate(0 0.5 0.5)"></g><g opacity="1" transform="translate(0 0)  rotate(0 0.5 0.5)"></g><g opacity="1" transform="translate(0 0)  rotate(0 0.5 0.5)"></g></g></g><g opacity="1" transform="translate(24.999999999999986 99)  rotate(0 37.968 20.719)"><g opacity="1" transform="translate(0 0)  rotate(0 37.968 20.719)"><g opacity="1" transform="translate(0 0)  rotate(0 37.968 20.719)"><path id="路径 1" fill-rule="evenodd" style="fill:#000000" transform="translate(0 0)  rotate(0 37.968 20.719)" opacity="1" d="M12.09,10.31C9.85,10.31 8.06,10.98 6.94,11.87L8.06,14.56C8.96,13.89 10.08,13.22 11.42,13.22C13.21,13.22 14.11,14.34 14.11,15.46C14.11,17.25 12.32,19.04 8.96,22.18L6.94,23.97L6.94,26.21L0,26.21L0,41.44L25.31,41.44L50.62,41.44L75.94,41.44L75.94,21.28C75.71,21.06 62.27,21.06 62.27,21.06L50.4,21.06L50.4,15.9L41.44,15.9L41.44,0L38.3,0L34.05,2.02L34.72,4.7L37.63,3.36L37.63,15.9L24.86,15.9L24.86,25.99L17.92,25.99L17.92,23.08L11.87,23.08L13.44,21.95C15.68,19.94 17.69,17.7 17.69,15.23C17.69,12.32 15.68,10.31 12.09,10.31Z " /><path id="路径 2" fill-rule="evenodd" style="fill:#000000" transform="translate(57.791000000000025 5.152000000000001)  rotate(0 5.488499999999991 8.072917438051912)" opacity="1" d="M6.72,4.48C6.72,5.82 5.15,6.27 3.81,6.27L2.46,6.27L2.46,8.96L4.03,8.96C5.6,8.96 7.17,9.63 7.17,11.2C7.17,12.32 6.27,13.22 4.26,13.22C2.69,13.22 1.34,12.54 0.67,12.32L0,15.01C0.9,15.68 2.69,16.13 4.7,16.13C8.51,16.35 10.98,14.34 10.98,11.43C10.98,9.41 9.41,7.84 7.62,7.62C9.64,6.94 10.53,5.6 10.53,4.03C10.53,1.79 8.74,0 5.38,0C3.36,0 1.35,0.67 0.45,1.12L1.12,3.81C1.8,3.36 3.14,2.91 4.48,2.91C6.05,2.91 6.72,3.58 6.72,4.48Z " /></g></g></g><path id="分组 1" fill-rule="evenodd" style="fill:#000000" transform="translate(53.999999999999986 70)  rotate(0 11 13)" opacity="1" d="M0 2.88C0 3.12 -0.08 8.66 2.3 11.15C2.99 11.88 3.82 12.28 4.76 12.37C5.12 14.95 7 17.04 9.44 17.63L9.44 22.67L7.47 22.67C7.34 22.67 7.22 22.74 7.15 22.84L5.44 25.37C5.35 25.49 5.35 25.65 5.41 25.78C5.48 25.92 5.61 26 5.76 26C5.76 26 16.24 26 16.24 26C16.46 26 16.63 25.82 16.63 25.6C16.63 25.5 16.59 25.42 16.54 25.34L14.85 22.84C14.78 22.74 14.66 22.67 14.53 22.67L12.56 22.67L12.56 17.63C15 17.04 16.88 14.95 17.24 12.37C18.18 12.28 19.01 11.88 19.7 11.15C22.08 8.66 22 3.12 22 2.88C21.99 2.45 21.65 2.1 21.22 2.1L17.31 2.09L17.31 0.4C17.31 0.18 17.13 0 16.92 0L5.08 0C4.87 0 4.69 0.18 4.69 0.4L4.69 2.09L0.78 2.1C0.35 2.1 0.01 2.45 0 2.88Z M17.3069 3.69588L17.3069 10.7459C17.7869 10.6559 18.2169 10.4259 18.5869 10.0359C19.9469 8.60588 20.3569 5.46588 20.4269 3.69588L17.3069 3.69588Z M3.411 10.036C3.791 10.426 4.211 10.656 4.691 10.746L4.691 3.69596L1.571 3.69596C1.651 5.47596 2.061 8.61596 3.411 10.036Z M10.0039 6.35209L7.77387 6.68209L9.38387 8.30209L9.00387 10.5821L11.0039 9.50209L12.9939 10.5821L12.6139 8.30209L14.2239 6.68209L11.9939 6.35209L11.0039 4.27209L10.0039 6.35209Z " /></g><g opacity="1" transform="translate(55 0)  rotate(0 32 17)"><text><tspan x="0" y="27" font-size="32" line-height="0" fill="#000000" opacity="1" font-family="HuXiaoBoNanShen-Regular" letter-spacing="0" >排名</tspan></text></g></g></g></g></svg>