<svg xmlns="http://www.w3.org/2000/svg" xmlns:xlink="http://www.w3.org/1999/xlink" width="294.99999999999994" height="295" viewBox="0 0 294.99999999999994 295" fill="none"><defs><rect id="path_0" x="0" y="0" width="294.99999999999994" height="294.99999999999994" /></defs><g opacity="1" transform="translate(0 0)  rotate(-180 147.49999999999997 147.49999999999997)"><mask id="bg-mask-0" fill="white"><use xlink:href="#path_0"></use></mask><g mask="url(#bg-mask-0)" ><path id="路径 1" fill-rule="evenodd" style="fill:#ED5564" transform="translate(19.640853763340058 190.38672723401922)  rotate(0 42.48296848388255 42.48224825778523)" opacity="1" d="M1.8,57.1C-0.6,59.49 -0.6,63.38 1.8,65.79L19.18,83.17C21.58,85.56 25.48,85.56 27.88,83.17L83.16,27.87C84.32,26.72 84.97,25.16 84.97,23.53C84.97,21.91 84.32,20.34 83.17,19.19L65.78,1.8C63.38,-0.6 59.49,-0.6 57.09,1.8L1.8,57.1Z " /><path id="路径 2" fill-rule="evenodd" style="fill:#CCD1D9" transform="translate(79.27903170362036 0.00010273383787962192)  rotate(0 107.86033603293875 107.86129705258755)" opacity="1" d="M1.8,179.15L36.56,213.92C37.72,215.07 39.28,215.72 40.91,215.72C42.54,215.72 44.1,215.07 45.25,213.92L203.51,55.67C204.32,54.85 204.89,53.82 205.15,52.7L215.57,7.53C216.04,5.46 215.41,3.3 213.92,1.8C212.43,0.3 210.26,-0.32 208.19,0.16L163.02,10.56C161.89,10.83 160.87,11.39 160.06,12.21L1.8,170.46C-0.6,172.86 -0.6,176.75 1.8,179.15Z " /><path id="分组 1" fill-rule="evenodd" style="fill:#FFFFFF" transform="translate(79.27903170362036 0.00010273383801973068)  rotate(0 107.86033298237706 107.86129705258755)" opacity="0.2" d="M1.8 170.46C-0.6 172.86 -0.6 176.75 1.8 179.15L36.56 213.92C37.72 215.07 39.28 215.72 40.91 215.72C42.54 215.72 44.1 215.07 45.25 213.92L203.51 55.67C204.32 54.85 204.89 53.82 205.15 52.7L215.57 7.53C216.04 5.46 215.41 3.3 213.92 1.8C212.43 0.3 210.26 -0.32 208.19 0.16L163.02 10.56C161.89 10.83 160.87 11.39 160.06 12.21L1.8 170.46Z M164.393 16.5549L6.14324 174.805L40.9132 209.575L199.163 51.3249L209.573 6.14487L164.393 16.5549Z " /><path id="路径 5" fill-rule="evenodd" style="fill:#AAB2BC" transform="translate(96.65837552149252 74.70991734245845)  rotate(0 61.814989296707736 61.8120003616522)" opacity="1" d="M10.49,121.83L121.83,10.49C124.23,8.09 124.23,4.2 121.83,1.8C119.43,-0.6 115.54,-0.6 113.14,1.8L1.8,113.13C-0.6,115.54 -0.6,119.42 1.8,121.83C4.2,124.22 8.09,124.22 10.49,121.83Z " /><g opacity="1" transform="translate(19.792965515086188 212.12099017172125)  rotate(0 42.40691260800949 19.180485241956845)"><path id="路径 6" fill-rule="evenodd" style="fill:#DA4453" transform="translate(24.716431116111195 0)  rotate(0 30.048697049953894 6.144392881138775)" opacity="1" d="M52.15,12.29L58.3,6.14C59.45,4.99 60.1,3.43 60.1,1.8C60.1,1.18 60,0.58 59.83,0L12.29,0L0,12.29L52.15,12.29Z " /><path id="路径 7" fill-rule="evenodd" style="fill:#DA4453" transform="translate(0 26.072184721636177)  rotate(0 31.54302215659619 6.144392881138759)" opacity="1" d="M10.93,0L1.65,9.29C0.79,10.15 0.25,11.19 0,12.29L50.79,12.29L63.09,0L10.93,0Z " /></g><g opacity="1" transform="translate(0.0005761808778430577 146.93476655885254)  rotate(0 74.03038401967217 74.03261672057366)"><path id="路径 8" fill-rule="evenodd" style="fill:#FFCE54" transform="translate(44.50997281207519 0)  rotate(0 51.77539761363458 51.77388513883027)" opacity="1" d="M1.8,14.83C-0.6,17.24 -0.6,21.13 1.8,23.52L80.02,101.75C81.18,102.9 82.74,103.55 84.37,103.55C86,103.55 87.56,102.9 88.72,101.75L101.75,88.71C104.15,86.32 104.15,82.42 101.75,80.02L23.53,1.8C21.13,-0.6 17.24,-0.6 14.84,1.8L1.8,14.83Z " /><path id="路径 9" fill-rule="evenodd" style="fill:#FFCE54" transform="translate(0 98.9038964476006)  rotate(0 24.58160479069985 24.58066849677336)" opacity="1" d="M41.97,7.19C32.38,-2.4 16.79,-2.4 7.2,7.19C2.56,11.84 0,18.01 0,24.58C0,31.14 2.56,37.31 7.2,41.96C11.84,46.6 18.01,49.16 24.58,49.16C31.15,49.16 37.32,46.6 41.97,41.96C46.61,37.31 49.16,31.14 49.16,24.58C49.16,18.01 46.61,11.84 41.97,7.19Z " /></g><path id="路径 10" fill-rule="evenodd" style="fill:#F6BB42" transform="translate(18.437788090438914 264.26247871060485)  rotate(0 6.144392881138766 6.1484261472835495)" opacity="1" d="M6.14,0C2.75,0 0,2.75 0,6.15C0,9.54 2.75,12.3 6.14,12.3C9.54,12.3 12.29,9.54 12.29,6.15C12.29,2.75 9.54,0 6.14,0Z " /><g opacity="1" transform="translate(0 0)  rotate(0 0.5 0.5)"></g><g opacity="1" transform="translate(0 0)  rotate(0 0.5 0.5)"></g><g opacity="1" transform="translate(0 0)  rotate(0 0.5 0.5)"></g><g opacity="1" transform="translate(0 0)  rotate(0 0.5 0.5)"></g><g opacity="1" transform="translate(0 0)  rotate(0 0.5 0.5)"></g><g opacity="1" transform="translate(0 0)  rotate(0 0.5 0.5)"></g><g opacity="1" transform="translate(0 0)  rotate(0 0.5 0.5)"></g><g opacity="1" transform="translate(0 0)  rotate(0 0.5 0.5)"></g><g opacity="1" transform="translate(0 0)  rotate(0 0.5 0.5)"></g><g opacity="1" transform="translate(0 0)  rotate(0 0.5 0.5)"></g><g opacity="1" transform="translate(0 0)  rotate(0 0.5 0.5)"></g><g opacity="1" transform="translate(0 0)  rotate(0 0.5 0.5)"></g><g opacity="1" transform="translate(0 0)  rotate(0 0.5 0.5)"></g><g opacity="1" transform="translate(0 0)  rotate(0 0.5 0.5)"></g><g opacity="1" transform="translate(0 0)  rotate(0 0.5 0.5)"></g></g></g></svg>