<svg xmlns="http://www.w3.org/2000/svg" xmlns:xlink="http://www.w3.org/1999/xlink" width="249" height="249" viewBox="0 0 249 249" fill="none"><defs><rect id="path_0" x="0" y="0" width="249" height="249" /></defs><g opacity="1" transform="translate(0 0)  rotate(0 124.5 124.5)"><mask id="bg-mask-0" fill="white"><use xlink:href="#path_0"></use></mask><g mask="url(#bg-mask-0)" ><path id="路径 1" fill-rule="evenodd" style="fill:#E6F3FF" transform="translate(16.772959826138464 0.00024967459425973004)  rotate(0 107.72695186317048 124.49993598987496)" opacity="1" d="M209.78,50.2C174.56,38.42 147.16,24.71 112.26,1.37C110.95,0.49 109.43,0.04 107.91,0C106.25,-0.04 104.59,0.42 103.17,1.37C68.25,24.72 40.87,38.43 5.69,50.19C2.34,51.31 -0.01,54.45 0,57.98C0.15,152.03 35.13,223.47 105.08,248.54C106.78,249.15 108.65,249.15 110.34,248.54C180.33,223.46 216.01,152.03 215.45,57.89C215.43,54.4 213.1,51.3 209.78,50.2Z " /><path id="路径 2" fill-rule="evenodd" style="fill:#B8D0E6" transform="translate(124.67799609374998 0.001458984375022343)  rotate(0 53.77443934527398 124.4948935546875)" opacity="1" d="M107.54,57.89C107.52,54.4 105.19,51.3 101.88,50.19C66.65,38.42 39.26,24.71 4.36,1.37C3.04,0.49 1.53,0.04 0,0L0,248.99C0.83,248.97 1.65,248.82 2.44,248.54C72.43,223.45 108.11,152.03 107.54,57.89Z " /><path id="路径 3" fill-rule="evenodd" style="fill:#F74F60" transform="translate(49.24848201477127 38.558646972656334)  rotate(0 75.2476264401711 87.63544666058611)" opacity="1" d="M78.64,174.49C137.11,146.16 148.75,79.5 150.49,42.29C150.64,38.95 148.66,35.89 145.55,34.67C122.95,25.8 101.91,15.15 79.35,1.17C76.83,-0.39 73.65,-0.39 71.13,1.17C48.56,15.15 27.53,25.8 4.95,34.67C1.84,35.89 -0.14,38.95 0.01,42.29C1.74,79.5 13.37,146.16 71.84,174.49C74,175.53 76.48,175.53 78.64,174.49Z " /><path id="路径 4" fill-rule="evenodd" style="fill:#DA4453" transform="translate(124.67799609375004 38.56582031250001)  rotate(0 37.53262715667683 87.62635839843749)" opacity="1" d="M3.92,1.16C2.72,0.42 1.36,0.03 0,0L0,175.25C1.1,175.23 2.19,174.97 3.21,174.48C61.68,146.16 73.32,79.49 75.06,42.28C75.21,38.95 73.23,35.88 70.12,34.66C47.52,25.79 26.49,15.15 3.92,1.16Z " /><g opacity="1" transform="translate(0 0)  rotate(0 0.5 0.5)"></g><g opacity="1" transform="translate(0 0)  rotate(0 0.5 0.5)"></g><g opacity="1" transform="translate(0 0)  rotate(0 0.5 0.5)"></g><g opacity="1" transform="translate(0 0)  rotate(0 0.5 0.5)"></g><g opacity="1" transform="translate(0 0)  rotate(0 0.5 0.5)"></g><g opacity="1" transform="translate(0 0)  rotate(0 0.5 0.5)"></g><g opacity="1" transform="translate(0 0)  rotate(0 0.5 0.5)"></g><g opacity="1" transform="translate(0 0)  rotate(0 0.5 0.5)"></g><g opacity="1" transform="translate(0 0)  rotate(0 0.5 0.5)"></g><g opacity="1" transform="translate(0 0)  rotate(0 0.5 0.5)"></g><g opacity="1" transform="translate(0 0)  rotate(0 0.5 0.5)"></g><g opacity="1" transform="translate(0 0)  rotate(0 0.5 0.5)"></g><g opacity="1" transform="translate(0 0)  rotate(0 0.5 0.5)"></g><g opacity="1" transform="translate(0 0)  rotate(0 0.5 0.5)"></g><g opacity="1" transform="translate(0 0)  rotate(0 0.5 0.5)"></g></g></g></svg>