<svg xmlns="http://www.w3.org/2000/svg" xmlns:xlink="http://www.w3.org/1999/xlink" width="347.2" height="56.60000000000002" viewBox="0 0 347.2 56.60000000000002" fill="none"><defs><linearGradient id="linear_0" x1="0%" y1="50%" x2="100%" y2="50%" gradientUnits="objectBoundingBox"><stop offset="0" stop-color="#787878" stop-opacity="1" /><stop offset="0.3883" stop-color="#C9C9C9" stop-opacity="1" /><stop offset="1" stop-color="#4F4F4F" stop-opacity="1" /></linearGradient></defs><path id="文本 2" fill-rule="evenodd" fill="url(#linear_0)" transform="translate(0 0)  rotate(0 173.6 28.3)" opacity="1" d="M2.9 0L25.9 0L19.2 47L56.6 47L55.7 56.6L5.8 56.6C2.9 56.6 1.45 54.7 1.45 54.7C0 52.8 0 49.9 0 49.9L5.8 3.8L2.9 0ZM71 0L64.3 49.9C64.3 49.9 63.9 51.3 64.2 52.55C64.2 52.55 64.5 53.8 65.35 54.7C65.35 54.7 66.2 55.6 67.4 56.1C67.4 56.1 68.6 56.6 70 56.6L123.8 56.6L130.5 6.7C130.5 6.7 130.9 5.2 130.6 4C130.6 4 130.3 2.8 129.45 1.9C129.45 1.9 128.6 1 127.4 0.5C127.4 0.5 126.2 0 124.8 0L71 0ZM147.4 0L142.6 33.6L181 33.6L179.1 45.1L144.5 45.1L141.6 41.2L139.7 56.6L189.6 56.6C189.6 56.6 191.1 56.6 192.45 56.1C192.45 56.1 193.8 55.6 194.9 54.7C194.9 54.7 196 53.8 196.65 52.55C196.65 52.55 197.3 51.3 197.3 49.9L201.1 24L162.7 24L165.6 9.6L183.9 9.6L182.9 16.3L202.1 16.3L204 0L147.4 0ZM217.8 0L272.5 0L271.6 9.6L239.9 9.6L238 22L267.7 22L266.8 31.6L236 31.6L234.1 47L267.7 47L266.8 56.6L213 56.6L220.7 3.8L217.8 0ZM335.7 35.5C335.7 35.5 337.2 35.5 338.55 35C338.55 35 339.9 34.5 341 33.6C341 33.6 342.1 32.7 342.75 31.45C342.75 31.45 343.4 30.2 343.4 28.8L347.2 0L284.8 0L287.7 3.8L281 56.6L300.2 56.6L303.1 35.5L322.3 56.6L343.4 56.6L323.2 35.5L335.7 35.5ZM83.5 47L88.3 9.6L111.3 9.6L105.6 47L83.5 47ZM325.2 25.9L304 25.9L306 9.6L327.1 9.6L325.2 25.9Z" /></svg>