<svg xmlns="http://www.w3.org/2000/svg" xmlns:xlink="http://www.w3.org/1999/xlink" width="446.8611117925556" height="111.31200000000013" viewBox="0 0 446.8611117925556 111.31200000000013" fill="none"><g opacity="1" transform="translate(0 0)  rotate(0 223.4305558962778 55.65600000000009)"><path id="文本 2" fill-rule="evenodd" style="fill:#FFFFFF" transform="translate(11.012012619001865 11)  rotate(0 207.72904958677685 21.84)" opacity="1" d="M140.22 14.14L161.71 14.14L163.74 0L177.18 0L171.16 43.68L140.92 43.68C138.89 43.68 137.87 42.35 137.87 42.35C136.86 41.02 136.86 38.99 136.86 38.99L140.22 14.14ZM377.59 2.03L375.56 0L391.03 0L385.64 36.96L390.33 43.68L376.26 43.68C374.23 43.68 373.21 42.35 373.21 42.35C372.2 41.02 372.2 38.99 372.2 38.99L377.59 2.03ZM399.99 0L402.02 2.03L396.63 38.99C396.63 38.99 396.63 41.02 397.64 42.35C397.64 42.35 398.66 43.68 400.69 43.68L414.76 43.68L410.07 36.96L415.46 0L399.99 0ZM2.32 43.33C2.32 43.33 3.16 43.68 4.14 43.68L37.11 43.68L37.74 39.62L43.13 41.65L44.46 33.6L40.47 32.27L43.83 8.75C43.83 8.75 44.32 6.72 43.06 5.39C43.06 5.39 41.8 4.06 39.77 4.06L4.84 4.06L0.15 38.99C0.15 38.99 -0.13 39.97 0.08 40.85C0.08 40.85 0.29 41.72 0.88 42.35C0.88 42.35 1.48 42.98 2.32 43.33ZM326.42 4.06L312.28 16.1L314.31 4.06L298.14 4.06L300.17 6.72L295.48 43.68L308.22 43.68L310.25 30.24L323.06 43.68L339.16 43.68L319 24.22L341.82 4.06L326.42 4.06ZM353.16 4.06L352.46 12.11L365.27 12.11L366.6 4.06L353.16 4.06ZM27.03 35.63L27.03 36.96L13.59 36.96L16.95 10.78L30.39 10.78L28.36 27.58L22.97 25.55L21.64 33.6L27.03 35.63ZM71.97 41.02L50.06 43.68L54.12 16.1L52.09 14.14L67.56 14.14L64.48 35.14L72.88 34.3L75.61 16.1L73.58 14.14L89.05 14.14L84.99 43.68L71.55 43.68L71.97 41.02ZM110.75 20.86L117.89 20.86L116.84 26.18L96.68 26.18L94.65 38.99C94.65 38.99 94.65 41.02 95.66 42.35C95.66 42.35 96.68 43.68 98.71 43.68L130.28 43.68L127.55 40.32L131.61 14.14L98.71 14.14L96.68 23.52L110.12 23.52L110.75 20.86ZM195.8 43.68L182.36 43.68L186.28 16.1L184.88 14.14L198.46 14.14L197.13 23.52L206.58 14.14L220.02 14.14L197.13 34.3L195.8 43.68ZM258.73 14.14L225.83 14.14L223.8 23.52L237.24 23.52L237.87 20.86L245.01 20.86L243.96 26.18L223.8 26.18L221.77 38.99C221.77 38.99 221.77 41.02 222.78 42.35C222.78 42.35 223.8 43.68 225.83 43.68L257.4 43.68L254.67 40.32L258.73 14.14ZM351.83 16.1L349.8 14.14L365.27 14.14L361.21 43.68L347.77 43.68L351.83 16.1ZM152.61 20.86L150.02 36.96L158.56 36.96L161.08 20.86L152.61 20.86ZM265.24 23.8L289.18 23.8L287.99 30.94L264.12 30.94L265.24 23.8ZM115.51 32.9L114.81 36.96L108.09 36.96L108.79 32.9L115.51 32.9ZM235.91 32.9L242.63 32.9L241.93 36.96L235.21 36.96L235.91 32.9Z" /><path id="文本 2 (轮廓)" fill-rule="evenodd" style="fill:#7D2D16" transform="translate(0 0)  rotate(0 223.4305558962778 33.834399999999995)" opacity="1" d="M299.7 20.81L286.92 4.06L364.07 4.06L360.01 0L439.19 0L437.36 12.59L432.59 45.24L446.86 65.68L387.27 65.68C385.38 65.68 383.61 65.38 381.94 64.77L381.81 65.68L329.36 65.68L328.78 65.08L328.69 65.68L294.01 65.68L295.62 52.94L281.17 52.94L291.52 65.68L236.84 65.68C234.63 65.68 232.57 65.26 230.66 64.43C229.55 63.94 228.52 63.33 227.57 62.58C226.62 61.84 225.79 60.99 225.05 60.02C223.91 58.52 223.06 56.86 222.5 55.03C222.02 53.43 221.78 51.75 221.78 49.99L221.78 49.12L222 47.75L218.46 50.87L216.36 65.68L109.72 65.68C108.31 65.68 106.95 65.51 105.66 65.17L105.59 65.68L69.69 65.68L69.84 64.7L63.17 65.51L62.81 67.67L58.55 66.07L48.09 67.34L48.33 65.68L15.15 65.68C13.03 65.68 11.01 65.28 9.1 64.48C7.1 63.65 5.37 62.46 3.9 60.9C3.03 59.98 2.29 58.96 1.7 57.85C1.12 56.77 0.68 55.62 0.39 54.41C0.09 53.14 -0.04 51.85 0.01 50.53C0.04 49.67 0.15 48.82 0.33 47.97L6.23 4.06L50.78 4.06C52.88 4.06 54.87 4.44 56.74 5.19C58.77 6.01 60.54 7.22 62.06 8.82C62.92 9.74 63.65 10.74 64.24 11.82C64.65 12.57 64.99 13.34 65.25 14.14L163.19 14.14L165.22 0L200.81 0L198.86 14.14L282.58 14.14L281.08 23.8L299.32 23.8L299.7 20.81ZM185.62 29.68L186.67 22L187.76 14.14L188.19 11L174.75 11L173.33 20.86L172.72 25.14L151.23 25.14L148.41 46L147.87 49.99C147.87 51.11 148.1 52.07 148.57 52.87C148.66 53.04 148.77 53.2 148.89 53.35C148.92 53.4 148.96 53.45 149 53.49C149.67 54.28 150.65 54.68 151.93 54.68L182.17 54.68L185.62 29.68ZM383.64 52.35C383.8 52.71 383.99 53.04 384.23 53.35C384.9 54.24 385.92 54.68 387.27 54.68L401.34 54.68L396.79 48.16L396.65 47.96L397.27 43.68L400.44 22L401.2 16.76L402.04 11L386.57 11L388.6 13.03L388.44 14.14L387.29 22L385.53 34.11L383.21 49.99C383.21 50.88 383.35 51.66 383.64 52.35ZM421.08 47.96L421.7 43.68L424.87 22L426.47 11L411 11L412.88 12.88L413.03 13.03L411.72 22L408.3 45.44L407.64 49.99Q407.64 52.015 408.66 53.35C409.33 54.24 410.35 54.68 411.7 54.68L425.77 54.68L421.08 47.96ZM53.25 30.92L51.94 40.07L51.48 43.27L51.62 43.32L55.47 44.6L54.33 51.49L54.14 52.65L52.94 52.2L50.45 51.26L49.04 50.73L48.98 50.71L48.75 50.62L48.58 51.73L48.27 53.69L48.26 53.79L48.12 54.68L15.15 54.68C14.5 54.68 13.89 54.56 13.33 54.33C13.12 54.24 12.92 54.14 12.73 54.03C12.42 53.84 12.14 53.61 11.9 53.35C11.5 52.93 11.23 52.43 11.09 51.85C10.95 51.26 10.97 50.64 11.16 49.99L15.85 15.06L50.78 15.06C51.71 15.06 52.53 15.27 53.22 15.69C53.53 15.88 53.81 16.12 54.07 16.39C54.91 17.28 55.17 18.4 54.84 19.75L53.25 30.92ZM324.51 26.06L323.29 27.1L323.41 26.37L323.47 26.06L325.32 15.06L309.15 15.06L311.18 17.72L310.41 23.8L310.12 26.06L307.89 43.68L306.71 52.94L306.49 54.68L319.23 54.68L320.91 43.58L321.15 41.96L321.26 41.24L322.33 42.36L330.86 51.32L331.06 51.52L334.07 54.68L350.17 54.68L347.97 52.56L338.87 43.77L338.77 43.68L337.95 42.88L330.34 35.54L330.01 35.22L330.4 34.88L338.28 27.91L340.38 26.06L343.28 23.5L344.04 22.82L352.83 15.06L337.43 15.06L336.32 16.01L335.89 16.37L325.32 25.37L324.51 26.06ZM363.47 23.11L376.28 23.11L377.25 17.24L377.61 15.06L364.17 15.06L363.73 20.11L363.54 22.31L363.47 23.11ZM39.37 38.58L39.51 37.46L39.74 35.52L40.07 32.78L40.73 27.34L40.88 26.06L41.4 21.78L27.96 21.78L27.87 22.49L27.41 26.06L26.01 36.96L25.15 43.68L24.6 47.96L38.04 47.96L38.04 46.63L35.96 45.85L32.65 44.6L32.8 43.68L33.76 37.9L33.91 36.96L33.98 36.55L35.07 36.96L35.47 37.11L37.01 37.69L38.04 38.08L39.37 38.58ZM63.16 54.43L61.07 54.68L62.73 43.4L63.8 36.14L63.85 35.8L65.13 27.1L64.93 26.91L63.1 25.14L78.57 25.14L78.46 25.88L77.35 33.44L77.14 34.92L76.96 36.14L76.13 41.77L75.79 44.09L75.49 46.14L82.56 45.43L83.89 45.3L84.13 43.68L84.57 40.75L85.26 36.14L86.62 27.1L84.59 25.14L100.06 25.14L99.92 26.18L98.55 36.14L97.26 45.52L96 54.68L82.56 54.68L82.98 52.02L82.56 52.07L72.39 53.31L71.63 53.4L65.03 54.2L63.16 54.43ZM128.58 33.48L128.7 32.9L128.9 31.86L121.76 31.86L121.51 32.9L121.13 34.52L107.69 34.52L109.5 26.18L109.72 25.14L142.62 25.14L140.91 36.14L139.75 43.68L138.56 51.32L141.29 54.68L109.72 54.68C108.69 54.68 107.85 54.42 107.21 53.9C107.12 53.83 107.04 53.75 106.95 53.67C106.85 53.57 106.76 53.46 106.68 53.35C106 52.46 105.66 51.34 105.66 49.99L106.37 45.52L107.69 37.18L127.85 37.18L128.06 36.14L128.58 33.48ZM197.11 26.85L197.29 27.1L196.01 36.14L194.93 43.68L193.37 54.68L206.81 54.68L207.36 50.79L208.14 45.3L218.54 36.14L218.68 36.01L219.09 35.66L223.86 31.46L224.3 31.06L224.7 30.72L229.85 26.18L231.03 25.14L217.59 25.14L209.47 33.2L208.14 34.52L208.77 30.09L209.47 25.14L195.89 25.14L197.11 26.85ZM233.8 53.35C233.12 52.46 232.78 51.34 232.78 49.99L233.49 45.52L234.81 37.18L254.97 37.18L255.18 36.14L255.7 33.48L255.82 32.9L256.02 31.86L248.88 31.86L248.63 32.9L248.25 34.52L234.81 34.52L236.62 26.18L236.84 25.14L269.74 25.14L268.03 36.14L266.87 43.68L265.68 51.32L267 52.94L268.41 54.68L236.84 54.68C235.66 54.68 234.74 54.34 234.07 53.67C233.98 53.57 233.88 53.46 233.8 53.35ZM375.05 34.11L374.77 36.14L372.45 52.98L372.22 54.68L358.78 54.68L359.68 48.57L360.4 43.68L361.51 36.14L361.81 34.11L362.84 27.1L360.81 25.14L376.28 25.14L376.15 26.06L375.05 34.11ZM349.94 39.17L351.11 31.26L346.22 35.58L349.94 39.17ZM161.72 43.68L162.8 36.96L162.93 36.14L163.62 31.86L172.09 31.86L171.88 33.19L171.42 36.14L170.37 42.86L170.24 43.68L169.57 47.96L161.03 47.96L161.24 46.66L161.72 43.68ZM299 41.94L275.13 41.94L276.25 34.8L300.19 34.8L299 41.94ZM125.82 47.96L126.24 45.52L126.33 45.03L126.52 43.9L119.8 43.9L119.52 45.52L119.29 46.83L119.1 47.96L125.82 47.96ZM246.64 45.52L246.92 43.9L253.64 43.9L253.45 45.03L253.36 45.52L252.94 47.96L246.22 47.96L246.41 46.83L246.64 45.52Z" /><path id="文本 2" fill-rule="evenodd" style="fill:#FFFFFF" transform="translate(126.97411179255559 65.80000000000018)  rotate(0 87.31199999999998 17.256)" opacity="1" d="M29.95 0L20.64 0L21.6 1.44L20.74 2.78L16.22 2.78L15.6 7.34L17.86 7.34L14.93 12.05L14.3 16.61L24.34 16.61L23.9 19.92L13.58 19.92L12.96 24.34L23.28 24.34L22.8 27.89L31.2 27.89L31.68 24.34L39.55 24.34L40.18 19.92L32.3 19.92L32.78 16.61L39.7 16.61L40.27 12.43L33.36 12.43L33.84 8.98L25.92 8.98L25.44 12.43L22.37 12.43L25.44 7.34L41.33 7.34L41.95 2.78L28.22 2.78L29.95 0ZM45.46 21.79L44.83 26.3L58.51 26.3L59.14 21.79L53.66 21.79L60.67 10.85L55.2 10.85L62.21 0L52.18 0L53.18 1.15L46.99 10.85L46.32 15.41L49.49 15.41L45.46 21.79ZM71.86 1.34L70.7 0L79.34 0L79.01 2.21L86.4 2.21L85.82 6.29L78.43 6.29L78.14 8.11L86.45 8.11L85.2 16.85L78.86 16.85L79.54 12.24L61.3 12.24L61.87 8.11L70.85 8.11L71.14 6.29L63.02 6.29L63.6 2.21L71.71 2.21L71.86 1.34ZM148.22 13.54L155.09 10.03L161.09 13.63L173.76 13.63L161.95 6.53L174.62 0L162.1 0L156.19 3.02L151.2 0L138.48 0L149.28 6.53L135.55 13.54L148.22 13.54ZM13.87 6.34L12.05 0.86L4.75 0.86L6.58 6.34L13.87 6.34ZM91.54 0.86L129.84 0.86L125.23 33.7L88.75 33.7L93.12 2.69L91.54 0.86ZM118.56 29.14L119.18 24.58L112.46 24.58C111.07 24.58 110.26 23.64 110.26 23.64C109.44 22.7 109.63 21.31 109.63 21.31L111.84 5.42L110.02 5.42L105.12 24.58L97.82 24.58L102.72 5.42L100.03 5.42L96.67 29.14L118.56 29.14ZM119.14 5.42L121.92 5.42L119.95 19.1L117.26 19.1L119.14 5.42ZM8.98 32.3L8.21 33.7L0 33.7L2.45 29.14L4.75 12.72L2.93 12.72L3.55 8.16L13.58 8.16L10.94 27.17L17.52 29.04L39.31 29.04L38.69 33.7L13.68 33.7L8.98 32.3ZM150.34 13.01L159.31 13.01L158.93 15.7L173.66 15.7L172.99 20.3L168.48 20.3L171.5 33.55L163.25 33.55L160.18 20.3L158.26 20.3L156.72 31.34C156.48 32.74 155.45 33.62 155.45 33.62C154.42 34.51 153.07 34.51 153.07 34.51L144.29 34.51L147.79 31.01L149.28 20.3L146.69 20.3L140.5 33.55L132.24 33.55L138.43 20.3L134.35 20.3L135.02 15.7L149.95 15.7L150.34 13.01ZM59.86 22.22L59.28 26.35L67.01 26.35L58.22 34.46L66.05 34.46L71.33 29.57L74.4 34.46L82.8 34.46L76.85 26.35L83.86 26.35L84.43 22.22L76.27 22.22L77.57 13.1L70.27 13.1L68.98 22.22L59.86 22.22ZM63.7 16.75L61.73 13.1L67.63 13.1L69.6 16.75L63.7 16.75ZM63.12 21.22L69.02 21.22L67.06 17.57L61.15 17.57L63.12 21.22ZM58.22 28.13L57.6 32.69L43.78 33.6L44.4 29.04L58.22 28.13Z" /><path id="文本 2 (轮廓)" fill-rule="evenodd" style="fill:#7D2D16" transform="translate(108.58401179255557 54.80000000000018)  rotate(0 115.88555 28.255999999999997)" opacity="1" d="M18.48 0L110.53 0L110.4 0.86L118.84 0.86L117.41 0L172.66 0L175.03 1.44L177.83 0L193.01 0L196.51 14.42L198.64 15.7L204.78 15.7L204.28 19.09L231.77 35.63L201.87 35.63L200.89 42.3L200.66 42.3L203.69 55.55L176.69 55.55C176.65 55.57 176.62 55.58 176.58 55.59C174.94 56.21 173.24 56.51 171.46 56.51L136.12 56.51L136.94 55.7L122.34 55.7L122.9 56.46L48.49 56.46L49.32 55.7L0 55.7L8.7 39.49L10.22 36.66L10.49 34.72L8.71 34.72L11.75 12.48L7.88 0.86L19.05 0.86L18.48 0ZM39.13 13.78L34.61 13.78L34.57 14.14L34.28 16.25L34.23 16.61L34.17 17.05L33.99 18.34L36.25 18.34L36.07 18.63L35.27 19.92L34.64 20.92L34.61 20.97L33.93 22.06L33.32 23.05L33.14 24.34L33.08 24.78L32.87 26.32L32.69 27.61L42.73 27.61L42.69 27.89L42.63 28.34L42.57 28.81L42.55 28.96L42.54 29.04L42.29 30.92L31.97 30.92L31.67 33.1L31.54 33.97L31.48 34.43L31.35 35.34L41.67 35.34L41.48 36.77L41.34 37.77L41.23 38.61L41.19 38.89L49.59 38.89L50.07 35.34L57.94 35.34L58.07 34.43L58.11 34.18L58.29 32.85L58.41 32.04L58.57 30.92L50.69 30.92L50.85 29.83L50.92 29.34L50.97 29.04L51.17 27.61L58.09 27.61L58.44 25.02L58.48 24.78L58.53 24.37L58.66 23.43L51.75 23.43L51.79 23.15L51.88 22.5L52.08 21.06L52.23 19.98L44.31 19.98L44.03 22L43.83 23.43L40.76 23.43L41 23.04L41.62 22L42.29 20.89L43 19.71L43.08 19.59L43.57 18.77L43.83 18.34L59.72 18.34L60.08 15.72L60.34 13.78L46.61 13.78L48.34 11L39.03 11L39.13 11.14L39.99 12.44L39.13 13.78ZM80.23 11.56L79.8 12.24L79.69 12.41L79.24 13.1L79.08 13.35L78.02 14.99L77.75 15.41L76.36 17.57L75.19 19.37L73.63 21.79L73.59 21.85L79.06 21.85L78.96 22L78.82 22.22L77.53 24.24L77.46 24.35L76.21 26.3L76.18 26.35L75.74 27.04L75.16 27.95L74.99 28.21L74.94 28.28L74.94 28.29L72.5 32.1L72.19 32.58L72.05 32.79L77.53 32.79L77.52 32.84L77.52 32.85L77.33 34.24L77.29 34.46L77.08 36.01L77.06 36.19L76.9 37.3L63.22 37.3L63.75 33.47L63.84 32.85L63.85 32.79L66.02 29.34L66.22 29.04L66.38 28.78L66.8 28.12L67.61 26.84L67.88 26.41L64.71 26.41L64.73 26.3L64.96 24.71L64.98 24.58L65.2 23.1L65.38 21.85L65.94 20.98L68.12 17.57L69.49 15.41L69.72 15.05L70.57 13.73L70.88 13.25L70.97 13.1L71.25 12.66L71.57 12.15L71.11 11.62L70.57 11L80.6 11L80.23 11.56ZM104.84 19.11L96.53 19.11L96.72 17.95L96.82 17.29L104.21 17.29L104.63 14.31L104.79 13.21L97.4 13.21L97.41 13.1L97.55 12.24L97.55 12.19L97.73 11L89.09 11L89.24 11.17L90.1 12.18L90.16 12.24L90.25 12.34L90.12 13.1L90.1 13.21L81.99 13.21L81.68 15.41L81.59 16.04L81.43 17.15L81.41 17.29L89.53 17.29L89.49 17.5L89.48 17.57L89.35 18.41L89.24 19.11L80.26 19.11L79.89 21.79L79.86 22L79.83 22.22L79.69 23.24L97.93 23.24L97.78 24.21L97.61 25.38L97.47 26.35L97.38 26.96L97.32 27.41L97.25 27.85L103.59 27.85L103.8 26.35L104.11 24.21L104.39 22.22L104.65 20.39L104.78 19.53L104.79 19.45L104.84 19.11ZM189.12 13.01L187.91 13.63L185.01 15.12L184.98 15.14L183.9 15.7L183.1 16.11L180.49 17.45L180.34 17.53L180.49 17.61L182.84 19.03L184.96 20.3L185.38 20.56L185.63 20.71L187.69 21.95L187.78 22L189 22.73L191.38 24.17L191.42 24.19L192.15 24.63L179.48 24.63L178.8 24.22L178.77 24.21L177.32 23.34L173.7 21.17L173.48 21.03L173.27 21.14L169.85 22.89L168.83 23.4L168.8 23.42L168.34 23.65L166.61 24.54L153.94 24.54L156.14 23.41L156.78 23.09L157.82 22.56L157.84 22.55L158.91 22L162.23 20.3L162.98 19.92L163.99 19.4L164.73 19.03L166.61 18.07L167.67 17.53L166.61 16.89L166.18 16.63L164.64 15.7L162.45 14.37L162.4 14.34L161.07 13.54L160.19 13.01L159.26 12.44L156.87 11L169.59 11L172.91 13.01L174.58 14.02L176.57 13.01L179.21 11.65L179.22 11.65L180.49 11L193.01 11L191.84 11.61L189.12 13.01ZM30.44 11.86L30.72 12.72L31.53 15.15L31.64 15.48L31.98 16.5L32.26 17.34L24.97 17.34L24.6 16.24L23.87 14.05L23.59 13.21L23.43 12.72L23.14 11.86L30.44 11.86ZM148.23 11.86L109.93 11.86L110.25 12.24L110.59 12.63L111.51 13.69L111.47 13.96L110.31 22.22L110.22 22.86L109.73 26.35L109.45 28.29L109.16 30.38L108.69 33.7L108.29 36.55L107.97 38.85L107.14 44.7L143.62 44.7L143.96 42.3L144.13 41.1L145.48 31.45L145.85 28.79L146.45 24.58L146.69 22.86L147.36 18.1L147.4 17.78L147.69 15.7L148.23 11.86ZM121.02 16.79L121.11 16.42L118.42 16.42L117.51 22.86L117.27 24.58L116.62 29.14L116.21 32.01L115.98 33.65L115.97 33.7L115.06 40.14L136.95 40.14L137.57 35.58L130.85 35.58C129.93 35.58 129.19 35.26 128.65 34.64C128.56 34.54 128.48 34.43 128.41 34.32C128.28 34.13 128.18 33.92 128.11 33.7L128.08 33.58C127.98 33.19 127.96 32.77 128.02 32.31L128.46 29.14L128.53 28.69L128.7 27.42L129.34 22.86L130.17 16.87L130.23 16.42L128.41 16.42L128.06 17.79L126.76 22.86L125.16 29.14L124.14 33.11L123.99 33.7L123.51 35.58L116.21 35.58L116.66 33.83L116.69 33.7L116.99 32.55L117.86 29.14L118.42 26.94L119.03 24.58L119.46 22.86L121.02 16.79ZM135.65 30.1L138.34 30.1L138.39 29.78L138.73 27.42L139.14 24.58L139.38 22.86L140.26 16.8L140.31 16.42L137.53 16.42L137.22 18.68L137.16 19.1L136.65 22.86L136.41 24.58L136.13 26.61L135.79 29.14L135.71 29.72L135.65 30.1ZM23.11 23.96L23.14 23.72L21.32 23.72L21.35 23.47L21.75 20.58L21.94 19.16L31.97 19.16L31.87 19.92L31.79 20.51L31.19 24.78L31.15 25.07L30.7 28.34L30.56 29.34L30.45 30.16L30.1 32.64L29.85 34.43L29.33 38.17L30.16 38.4L30.88 38.61L31.97 38.92L32.07 38.95L32.11 38.96L33.64 39.39L35.91 40.04L57.7 40.04L57.45 41.92L57.2 43.79L57.08 44.7L32.07 44.7L31.04 44.39L29.41 43.91L27.37 43.3L26.6 44.7L18.39 44.7L19.11 43.36L20.27 41.2L20.84 40.14L21.05 38.61L21.6 34.72L21.64 34.43L21.74 33.7L21.75 33.63L22.22 30.31L22.24 30.16L22.35 29.34L22.49 28.34L23.11 23.96ZM180.05 37.7L181.64 44.55L189.89 44.55L189.48 42.73L189.38 42.3L188.33 37.7L187.86 35.63L187.42 33.7L187.38 33.55L187.22 32.83L187.21 32.77L186.87 31.3L191.38 31.3L191.54 30.24L192.05 26.7L177.32 26.7L177.52 25.26L177.58 24.85L177.59 24.82L177.7 24.01L168.73 24.01L168.34 26.7L153.41 26.7L153 29.52L152.81 30.83L152.74 31.3L156.82 31.3L156.56 31.86L156.52 31.95L156.46 32.09L155.77 33.55L154.84 35.54L153.83 37.7L152.87 39.77L152.11 41.39L151.68 42.3L150.63 44.55L158.89 44.55L160.45 41.21L162.02 37.85L162.09 37.7L162.68 36.44L163.1 35.54L163.58 34.51L165.08 31.3L167.67 31.3L167.51 32.44L167.22 34.51L167.12 35.25L167.08 35.54L167.02 36L166.78 37.7L166.35 40.83L166.31 41.12L166.18 42.01L165.89 42.3L162.68 45.51L171.46 45.51C172.36 45.51 173.15 45.22 173.84 44.62C174.53 44.03 174.95 43.27 175.11 42.34L175.76 37.7L176.07 35.42L176.25 34.19L176.58 31.8L176.58 31.76L176.65 31.3L178.57 31.3L178.63 31.58L178.7 31.87L178.71 31.92L179.57 35.63L180.05 37.7ZM88.65 24.21L88.66 24.1L95.96 24.1L95.94 24.21L95.87 24.72L95.81 25.12L95.64 26.35L95.59 26.7L95.3 28.76L95.1 30.11L94.82 32.11L94.66 33.22L102.82 33.22L102.66 34.36L102.34 36.68L102.34 36.71L102.25 37.35L95.24 37.35L96.27 38.75L96.34 38.85L96.77 39.44L97.46 40.38L97.81 40.86L98.54 41.85L99.54 43.22L100.28 44.22L101.19 45.46L92.79 45.46L92.01 44.22L91.38 43.22L89.72 40.57L87.24 42.87L87.2 42.9L86.86 43.22L86.29 43.75L85.78 44.22L85.4 44.57L84.44 45.46L76.61 45.46L77.01 45.1L78.25 43.96L79.05 43.22L80.83 41.57L82.6 39.94L83 39.57L83.13 39.45L83.88 38.75L84.38 38.29L84.44 38.24L84.65 38.04L85.4 37.35L77.67 37.35L77.67 37.33L77.77 36.65L77.79 36.47L78.07 34.46L78.1 34.24L78.25 33.22L87.37 33.22L87.81 30.11L88.01 28.71L88.07 28.29L88.09 28.15L88.2 27.34L88.26 26.92L88.34 26.35L88.61 24.48L88.65 24.21ZM86.08 24.21L86.03 24.13L86.02 24.1L80.12 24.1L80.26 24.37L81.14 26L81.33 26.35L81.45 26.57L81.51 26.68L81.74 27.11L81.85 27.32L82.08 27.74L82.09 27.75L87.99 27.75L87.78 27.37L87.78 27.36L87.41 26.68L87.37 26.6L87.23 26.35L86.66 25.28L86.54 25.07L86.43 24.85L86.08 24.21ZM80.38 30.11L80.26 29.9L80.12 29.64L79.54 28.57L85.45 28.57L85.68 29L85.79 29.21L85.91 29.42L86.02 29.64L86.08 29.75L86.28 30.11L86.53 30.58L87.37 32.13L87.41 32.22L81.51 32.22L81.11 31.47L80.87 31.04L80.38 30.11ZM65.58 44.37L63.09 44.54L62.17 44.6L62.28 43.79L62.29 43.72L62.79 40.04L65.41 39.87L66.22 39.81L66.54 39.79L68.44 39.67L68.85 39.64L72.87 39.37L75.69 39.19L76.61 39.13L76.05 43.22L75.99 43.69L74.41 43.79L73.37 43.86L68.24 44.2L67.79 44.23L65.58 44.37Z" /></g></svg>