<svg xmlns="http://www.w3.org/2000/svg" xmlns:xlink="http://www.w3.org/1999/xlink" width="328" height="136" viewBox="0 0 328 136" fill="none"><defs><linearGradient id="linear_0" x1="-5.551115123125783e-15%" y1="50%" x2="100%" y2="49.999999999999986%" gradientUnits="objectBoundingBox"><stop offset="0" stop-color="#A38F1C" stop-opacity="1" /><stop offset="0.518" stop-color="#F78C34" stop-opacity="1" /><stop offset="1" stop-color="#874518" stop-opacity="1" /></linearGradient></defs><g opacity="1" transform="translate(0 0)  rotate(0 164 68)"><path id="矩形 2" fill-rule="evenodd" fill="url(#linear_0)" transform="translate(0 0)  rotate(0 164 68)" opacity="1" d="M32,136L296,136C313.67,136 328,121.67 328,104L328,32C328,14.33 313.67,0 296,0L32,0C14.33,0 0,14.33 0,32L0,104C0,121.67 14.33,136 32,136Z " /><path id="文本 1" fill-rule="evenodd" style="fill:#FFFFFF" transform="translate(16.7323076923077 32.75723076923077)  rotate(0 145.91907692307694 36.04984615384616)" opacity="1" d="M50.19 45.22L36.69 0L4.84 0L9.81 4.84L0 72.1L22.04 72.1L26.88 35.41L36.69 67.26L56.3 67.26L75.79 34.14L69.68 72.1L91.72 72.1L101.53 0L75.79 0L50.19 45.22ZM196.68 0L162.54 72.1L128.28 72.1L114.77 3.57L112.35 0L138.08 0L147.77 50.06L172.22 0L196.68 0ZM291.84 0L212.35 0L216.04 3.57L207.51 72.1L230.69 72.1L234.39 47.64L277.19 47.64C277.19 47.64 279.99 47.64 282.98 45.22C282.98 45.22 285.98 42.8 287 39.11L291.84 0ZM236.81 35.41L239.36 12.23L266.23 12.23L262.54 35.41L236.81 35.41Z" /></g></svg>